<svg width="261" height="68" viewBox="0 0 261 68" fill="none" xmlns="http://www.w3.org/2000/svg">
<path d="M101.66 34.98V28.5H97.025V22.2L90.275 24.225V28.5H86.675V34.98H90.275V42.945C90.275 49.245 92.84 51.9 101.66 51V44.88C98.69 45.06 97.025 44.88 97.025 42.945V34.98H101.66ZM111.652 35.07C111.652 34.26 112.372 33.81 113.542 33.81C115.027 33.81 115.927 34.62 116.557 35.79L122.317 32.685C120.427 29.49 117.187 27.87 113.542 27.87C108.862 27.87 104.722 30.345 104.722 35.25C104.722 43.035 115.792 41.73 115.792 44.205C115.792 45.105 114.982 45.6 113.362 45.6C111.382 45.6 110.122 44.655 109.537 42.945L103.687 46.275C105.442 49.92 108.862 51.63 113.362 51.63C118.222 51.63 122.722 49.425 122.722 44.25C122.722 35.925 111.652 37.635 111.652 35.07ZM140.532 32.28L145.977 25.35V19.5H125.727V26.25H137.247L131.532 33.495L134.277 37.59H135.762C138.732 37.59 140.037 39.165 140.037 41.1C140.037 43.035 138.732 44.61 135.762 44.61C133.017 44.61 131.667 43.35 130.947 41.28L124.737 44.88C126.672 49.515 130.992 51.63 135.762 51.63C141.837 51.63 147.237 48.03 147.237 41.1C147.237 36.735 144.402 33.63 140.532 32.28ZM170.055 35.07C170.055 34.26 170.775 33.81 171.945 33.81C173.43 33.81 174.33 34.62 174.96 35.79L180.72 32.685C178.83 29.49 175.59 27.87 171.945 27.87C167.265 27.87 163.125 30.345 163.125 35.25C163.125 43.035 174.195 41.73 174.195 44.205C174.195 45.105 173.385 45.6 171.765 45.6C169.785 45.6 168.525 44.655 167.94 42.945L162.09 46.275C163.845 49.92 167.265 51.63 171.765 51.63C176.625 51.63 181.125 49.425 181.125 44.25C181.125 35.925 170.055 37.635 170.055 35.07ZM197.021 34.98V28.5H192.386V22.2L185.636 24.225V28.5H182.036V34.98H185.636V42.945C185.636 49.245 188.201 51.9 197.021 51V44.88C194.051 45.06 192.386 44.88 192.386 42.945V34.98H197.021ZM215.458 28.5L211.228 42.27L206.233 28.5H198.808L207.763 49.965C206.773 52.71 205.288 53.7 202.138 53.7V60C208.438 60.315 212.443 57.48 214.963 50.325L222.658 28.5H215.458ZM225.145 51H231.895V18.15H225.145V51ZM242.864 42.45H258.839C259.019 41.595 259.109 40.695 259.109 39.75C259.109 32.955 254.249 27.87 247.679 27.87C240.569 27.87 235.709 33.045 235.709 39.75C235.709 46.455 240.479 51.63 248.174 51.63C252.449 51.63 255.779 50.055 257.984 46.995L252.584 43.89C251.684 44.88 250.109 45.6 248.264 45.6C245.789 45.6 243.719 44.79 242.864 42.45ZM242.729 37.41C243.359 35.115 245.069 33.855 247.634 33.855C249.659 33.855 251.684 34.8 252.404 37.41H242.729Z" fill="white"/>
<path d="M154.878 51.63C157.218 51.63 159.153 49.695 159.153 47.355C159.153 45.015 157.218 43.08 154.878 43.08C152.538 43.08 150.603 45.015 150.603 47.355C150.603 49.695 152.538 51.63 154.878 51.63Z" fill="#EFB915"/>
<path d="M34.0004 1C20.271 1 9.10241 12.1952 9.10241 25.9569V28.6641H14.1664V25.9569C14.1664 14.9945 23.0639 6.07601 34.0004 6.07601C44.9369 6.07601 53.8344 14.9946 53.8344 25.9569V28.6641H58.8984V25.9569C58.8984 12.1952 47.729 1 34.0004 1Z" fill="#EFB915"/>
<path d="M15.1792 26.1262H8.93359C4.55919 26.1262 1 29.6938 1 34.0785V45.6687C1 50.0534 4.55919 53.621 8.93359 53.621H15.1792C16.5777 53.621 17.7111 52.4848 17.7111 51.0831V28.6642C17.7112 27.2624 16.5777 26.1262 15.1792 26.1262ZM12.6472 48.5452H8.93359C7.32487 48.5452 6.06402 47.2821 6.06402 45.6688V34.0787C6.06402 32.4661 7.325 31.2023 8.93359 31.2023H12.6472V48.5452Z" fill="#EFB915"/>
<path d="M59.0664 26.1262H52.8216C51.4231 26.1262 50.2897 27.2624 50.2897 28.6641V51.0831C50.2897 52.4849 51.4232 53.621 52.8216 53.621H59.0672C63.4416 53.621 67.0008 50.0534 67 45.6687V34.0785C67 29.6938 63.4417 26.1262 59.0664 26.1262ZM61.936 45.6688C61.936 47.2821 60.6759 48.5452 59.0664 48.5452H55.3537V31.2022H59.0664C60.6759 31.2022 61.936 32.4661 61.936 34.0785V45.6688Z" fill="#EFB915"/>
<path d="M55.6077 53.2392C55.6077 56.7848 52.7296 59.6688 49.1925 59.6688H42.4404V64.7448H49.1925C55.5216 64.7448 60.6709 59.5833 60.6717 53.2392H55.6077Z" fill="#EFB915"/>
<path d="M44.9969 61.8155C44.9794 58.9897 42.6801 56.6957 39.8567 56.6957C37.0229 56.6957 34.717 59.0067 34.717 61.8477C34.717 64.6886 37.0441 67 39.9043 67C41.3167 67 42.6772 66.4228 43.6364 65.416C44.5673 64.4399 45.0492 63.1626 44.9969 61.8155ZM41.5916 63.4557C41.1629 63.9053 40.548 64.1634 39.9048 64.1634C38.6268 64.1634 37.5469 63.1026 37.5469 61.8471C37.5469 60.5704 38.583 59.5314 39.8572 59.5314C41.1314 59.5314 42.1679 60.5709 42.1684 61.8466C42.1684 61.8684 42.1688 61.8896 42.1698 61.9114C42.1957 62.4886 41.9906 63.0374 41.5916 63.4557Z" fill="#EFB915"/>
<path d="M34.0004 1C20.271 1 9.10241 12.1952 9.10241 25.9569V28.6641H14.1664V25.9569C14.1664 14.9945 23.0639 6.07601 34.0004 6.07601C44.9369 6.07601 53.8344 14.9946 53.8344 25.9569V28.6641H58.8984V25.9569C58.8984 12.1952 47.729 1 34.0004 1Z" stroke="#EFB915"/>
<path d="M15.1792 26.1262H8.93359C4.55919 26.1262 1 29.6938 1 34.0785V45.6687C1 50.0534 4.55919 53.621 8.93359 53.621H15.1792C16.5777 53.621 17.7111 52.4848 17.7111 51.0831V28.6642C17.7112 27.2624 16.5777 26.1262 15.1792 26.1262ZM12.6472 48.5452H8.93359C7.32487 48.5452 6.06402 47.2821 6.06402 45.6688V34.0787C6.06402 32.4661 7.325 31.2023 8.93359 31.2023H12.6472V48.5452Z" stroke="#EFB915"/>
<path d="M59.0664 26.1262H52.8216C51.4231 26.1262 50.2897 27.2624 50.2897 28.6641V51.0831C50.2897 52.4849 51.4232 53.621 52.8216 53.621H59.0672C63.4416 53.621 67.0008 50.0534 67 45.6687V34.0785C67 29.6938 63.4417 26.1262 59.0664 26.1262ZM61.936 45.6688C61.936 47.2821 60.6759 48.5452 59.0664 48.5452H55.3537V31.2022H59.0664C60.6759 31.2022 61.936 32.4661 61.936 34.0785V45.6688Z" stroke="#EFB915"/>
<path d="M55.6077 53.2392C55.6077 56.7848 52.7296 59.6688 49.1925 59.6688H42.4404V64.7448H49.1925C55.5216 64.7448 60.6709 59.5833 60.6717 53.2392H55.6077Z" stroke="#EFB915"/>
<path d="M44.9969 61.8155C44.9794 58.9897 42.6801 56.6957 39.8567 56.6957C37.0229 56.6957 34.717 59.0067 34.717 61.8477C34.717 64.6886 37.0441 67 39.9043 67C41.3167 67 42.6772 66.4228 43.6364 65.416C44.5673 64.4399 45.0492 63.1626 44.9969 61.8155ZM41.5916 63.4557C41.1629 63.9053 40.548 64.1634 39.9048 64.1634C38.6268 64.1634 37.5469 63.1026 37.5469 61.8471C37.5469 60.5704 38.583 59.5314 39.8572 59.5314C41.1314 59.5314 42.1679 60.5709 42.1684 61.8466C42.1684 61.8684 42.1688 61.8896 42.1698 61.9114C42.1957 62.4886 41.9906 63.0374 41.5916 63.4557Z" stroke="#EFB915"/>
<path d="M35.7305 42.832V38.168C35.7305 37.2123 34.9557 36.4375 34 36.4375C33.0443 36.4375 32.2695 37.2123 32.2695 38.168V42.832C32.2695 43.7877 33.0443 44.5625 34 44.5625C34.9557 44.5625 35.7305 43.7877 35.7305 42.832ZM41.6152 46.3945V34.6055C41.6152 33.6498 40.8405 32.875 39.8848 32.875C38.9291 32.875 38.1543 33.6498 38.1543 34.6055V46.3945C38.1543 47.3503 38.9291 48.125 39.8848 48.125C40.8405 48.125 41.6152 47.3502 41.6152 46.3945ZM29.8457 48.7695V32.2305C29.8457 31.2748 29.0709 30.5 28.1152 30.5C27.1595 30.5 26.3848 31.2748 26.3848 32.2305V48.7695C26.3848 49.7252 27.1595 50.5 28.1152 50.5C29.0709 50.5 29.8457 49.7252 29.8457 48.7695ZM45.8125 38.8125H45.7266C44.7946 38.8125 44.0391 39.568 44.0391 40.5C44.0391 41.432 44.7946 42.1875 45.7266 42.1875H45.8125C46.7445 42.1875 47.5 41.432 47.5 40.5C47.5 39.568 46.7445 38.8125 45.8125 38.8125ZM23.9609 41.6445V39.3555C23.9609 38.3998 23.1862 37.625 22.2305 37.625C21.2747 37.625 20.5 38.3997 20.5 39.3555V41.6445C20.5 42.6002 21.2747 43.375 22.2305 43.375C23.1862 43.375 23.9609 42.6002 23.9609 41.6445Z" fill="white" stroke="white"/>
</svg>
